#N canvas 0 25 1280 747 12;
#N canvas 70 38 450 569 clock 0;
#X obj 232 110 metro 1000;
#X obj 231 146 f;
#X obj 232 175 + 1;
#X floatatom 264 355 5 0 0 0 - - - 36;
#X msg 275 146 0;
#X floatatom 132 356 5 0 0 0 - - - 36;
#X obj 124 152 f;
#X obj 125 181 + 1;
#X obj 291 191 sel 61;
#X msg 116 68 -1;
#X msg 159 61 0;
#X obj 231 26 inlet;
#X obj 77 30 r mes1;
#X obj 147 25 r mes2;
#X text 297 323 SEC;
#X text 169 326 MIN;
#X connect 0 0 1 0;
#X connect 1 0 2 0;
#X connect 2 0 1 1;
#X connect 2 0 3 0;
#X connect 2 0 8 0;
#X connect 4 0 2 0;
#X connect 6 0 7 0;
#X connect 7 0 6 1;
#X connect 7 0 5 0;
#X connect 8 0 4 0;
#X connect 8 0 6 0;
#X connect 9 0 6 0;
#X connect 9 0 1 0;
#X connect 10 0 6 0;
#X connect 10 0 1 0;
#X connect 11 0 0 0;
#X connect 12 0 9 0;
#X connect 13 0 10 0;
#X coords 0 -1 1 1 300 120 1 100 300;
#X restore 508 475 pd clock;
#X obj 548 368 tgl 19 0 empty empty empty 0 -10 0 12 #fcfcfc #000000 #000000 0 1;
#X msg 499 398 -1;
#X obj 499 432 s mes1;
#N canvas 0 25 803 563 scene 0;
#X obj 245 19 key;
#X obj 80 41 sel 32;
#X obj 142 67 t b b;
#X obj 142 91 f;
#X obj 142 115 + 1;
#X floatatom 334 160 5 0 0 0 - - - 36;
#X obj 142 223 sel 0 1 2;
#X text 355 128 SEZIONE;
#X obj 260 462 s sez1;
#X obj 316 461 s sez2;
#X obj 375 462 s sez3;
#X obj 142 139 mod 4;
#X msg 208 306 1 10000;
#X msg 348 306 0 10000;
#X msg 415 307 1 10000;
#X msg 508 306 0 10000;
#X msg 569 307 1 10000;
#X msg 12 308 0 10;
#X msg 58 308 0 10;
#X msg 101 307 0 10000;
#X floatatom 274 43 5 0 0 0 - - - 0;
#X obj 192 45 sel 236;
#X connect 0 0 1 0;
#X connect 0 0 20 0;
#X connect 0 0 21 0;
#X connect 2 0 3 0;
#X connect 3 0 4 0;
#X connect 4 0 3 1;
#X connect 4 0 11 0;
#X connect 6 0 17 0;
#X connect 6 0 18 0;
#X connect 6 0 19 0;
#X connect 6 1 12 0;
#X connect 6 2 13 0;
#X connect 6 2 14 0;
#X connect 6 3 15 0;
#X connect 6 3 16 0;
#X connect 11 0 5 0;
#X connect 11 0 6 0;
#X connect 12 0 8 0;
#X connect 13 0 8 0;
#X connect 14 0 9 0;
#X connect 15 0 9 0;
#X connect 16 0 10 0;
#X connect 17 0 8 0;
#X connect 18 0 9 0;
#X connect 19 0 10 0;
#X connect 21 0 2 0;
#X coords 0 -1 1 1 185 130 1 300 100;
#X restore 61 127 pd scene;
#X obj 974 339 dac~, f 16;
#X msg 314 34 \; pd dsp 1;
#X msg 313 75 \; pd dsp 0;
#X obj 87 334 adc~ 1;
#X obj 88 451 vu 19 200 empty empty -1 -10 0 12 #404040 #000000 1 0;
#X obj 86 398 env~ 4096 2048;
#X obj 88 424 - 100;
#X obj 248 451 vu 19 200 empty empty -1 -10 0 12 #404040 #000000 1 0;
#X obj 246 398 env~ 4096 2048;
#X obj 248 424 - 100;
#X obj 247 334 adc~ 2;
#X text 554 403 TIMER;
#X obj 1084 449 vu 19 200 empty empty -1 -10 0 12 #404040 #000000 1 0;
#X obj 1082 396 env~ 4096 2048;
#X obj 1084 422 - 100;
#X obj 975 448 vu 19 200 empty empty -1 -10 0 12 #404040 #000000 1 0;
#X obj 973 395 env~ 4096 2048;
#X obj 975 421 - 100;
#X text 1028 278 USCITE;
#X text 67 40 sezione 0 = off;
#X text 66 56 sezione 1 = prima sezione;
#X text 65 73 sezione 2 = seconda;
#X text 66 91 sezione 3 = terza;
#X obj 476 63 rf_sezione1, f 22;
#X obj 489 89 rf_sezione2, f 18;
#X obj 514 114 rf_sezione3;
#X obj 106 364 s~ tamburo;
#X obj 276 360 s~ viola;
#X text 85 305 IN - TAMBURO;
#X text 245 305 IN - VIOLA;
#X obj 476 252 s~ ATT_tamburo;
#X obj 627 252 s~ ATT_viola;
#X obj 974 313 r~ ATT_tamburo;
#X obj 1083 313 r~ ATT_viola;
#X obj 1083 369 r~ ATT_viola;
#X obj 974 369 r~ ATT_tamburo;
#X connect 1 0 0 0;
#X connect 2 0 3 0;
#X connect 8 0 10 0;
#X connect 8 0 31 0;
#X connect 10 0 11 0;
#X connect 11 0 9 0;
#X connect 13 0 14 0;
#X connect 14 0 12 0;
#X connect 15 0 13 0;
#X connect 15 0 32 0;
#X connect 18 0 19 0;
#X connect 19 0 17 0;
#X connect 21 0 22 0;
#X connect 22 0 20 0;
#X connect 28 0 35 0;
#X connect 28 1 36 0;
#X connect 29 0 36 0;
#X connect 29 1 35 0;
#X connect 30 0 36 0;
#X connect 30 1 35 0;
#X connect 37 0 5 0;
#X connect 38 0 5 1;
#X connect 39 0 18 0;
#X connect 40 0 21 0;
