#N canvas 0 25 640 747 12;
#X obj 138 159 switch~;
#N canvas 640 25 640 359 crossfade 0;
#X obj 86 177 t l l;
#X obj 7 262 vline~;
#X obj 118 200 unpack f f;
#X obj 118 233 sel 0 1, f 27;
#X obj 118 262 delay 10000;
#X msg 118 295 0;
#X msg 211 295 1;
#X obj 7 146 loadbang;
#X msg 7 170 0;
#X obj 118 323 outlet;
#X obj 211 323 outlet;
#X obj 7 323 outlet~;
#X obj 86 146 inlet;
#X text 7 14 ========== CROSSFADE =================================== Gestisce il crossfade tra le sezioni attraverso la gestione dell'oggetto switch~ e lancia una rampa audio lineare in moltiplicazione alla somma dei buffers presenti nella sezione. Riceve la lista con i secondi di crossfade e il prossimo valore della rampa dalla subpatch 'scene' presente nella patch main.;
#X connect 0 0 1 0;
#X connect 0 1 2 0;
#X connect 1 0 11 0;
#X connect 2 0 3 0;
#X connect 3 0 4 0;
#X connect 3 1 6 0;
#X connect 4 0 5 0;
#X connect 5 0 9 0;
#X connect 6 0 10 0;
#X connect 7 0 8 0;
#X connect 8 0 1 0;
#X connect 12 0 0 0;
#X restore 8 130 pd crossfade;
#X f 19;
#X obj 8 107 r sez2;
#X obj 8 159 s~ sez2_crossf;
#X obj 8 209 r~ tamburo;
#X obj 8 262 r~ viola;
#X obj 8 236 delwrite~ sez2_tamburo 15000;
#X obj 8 289 delwrite~ sez2_viola 15000;
#X obj 777 481 vu 19 200 empty empty -1 -10 0 12 #404040 #000000 1 0;
#X obj 776 418 env~ 4096 2048;
#X obj 776 448 - 100;
#X obj 656 418 outlet~;
#X obj 772 363 r~ sez2_crossf;
#X obj 685 325 osc~;
#X obj 685 265 env~ 8192 4096;
#X obj 667 363 *~;
#X obj 656 389 *~, f 17;
#X obj 437 481 vu 19 200 empty empty -1 -10 0 12 #404040 #000000 1 0;
#X obj 436 418 env~ 4096 2048;
#X obj 436 448 - 100;
#X obj 316 418 outlet~;
#X obj 317 207 delread~ sez2_tamburo 20;
#X obj 327 235 delread~ sez2_tamburo 15000;
#X obj 432 363 r~ sez2_crossf;
#X obj 345 325 osc~;
#X obj 345 265 env~ 8192 4096;
#X obj 345 295 + 320;
#X obj 327 363 *~;
#X obj 316 389 *~, f 17;
#X obj 657 207 delread~ sez2_viola 20;
#X obj 667 235 delread~ sez2_viola 14200;
#X obj 685 295 + 335;
#X text 11 18 ABSTRACTION ------- ================================================================ sezione 2: il tamburo e la viola vengono scritti in un buffer della stessa grandezza ed escono con un routing incrociato. in1(tamburo)->out2(viola) in2(viola)->out1(tamburo), f 64;
#X connect 1 0 3 0;
#X connect 1 1 0 0;
#X connect 1 2 0 0;
#X connect 2 0 1 0;
#X connect 4 0 6 0;
#X connect 5 0 7 0;
#X connect 9 0 10 0;
#X connect 10 0 8 0;
#X connect 12 0 16 1;
#X connect 13 0 15 1;
#X connect 14 0 31 0;
#X connect 15 0 16 0;
#X connect 16 0 11 0;
#X connect 16 0 9 0;
#X connect 18 0 19 0;
#X connect 19 0 17 0;
#X connect 21 0 28 0;
#X connect 22 0 25 0;
#X connect 22 0 27 0;
#X connect 23 0 28 1;
#X connect 24 0 27 1;
#X connect 25 0 26 0;
#X connect 26 0 24 0;
#X connect 27 0 28 0;
#X connect 28 0 20 0;
#X connect 28 0 18 0;
#X connect 29 0 16 0;
#X connect 30 0 14 0;
#X connect 30 0 15 0;
#X connect 31 0 13 0;
