#N canvas 0 25 640 747 12;
#X obj 401 381 vu 19 200 empty empty -1 -10 0 12 #404040 #000000 1 0;
#X obj 396 318 env~ 4096 2048;
#X obj 398 346 - 100;
#X obj 782 373 vu 19 200 empty empty -1 -10 0 12 #404040 #000000 1 0;
#X obj 777 318 env~ 4096 2048;
#X obj 779 346 - 100;
#X obj 651 318 outlet~;
#X obj 256 318 outlet~;
#X obj 138 159 switch~;
#N canvas 640 25 640 359 crossfade 0;
#X obj 86 177 t l l;
#X obj 7 262 vline~;
#X obj 118 200 unpack f f;
#X obj 118 233 sel 0 1, f 27;
#X obj 118 262 delay 10000;
#X msg 118 295 0;
#X msg 211 295 1;
#X obj 7 146 loadbang;
#X msg 7 170 0;
#X obj 118 323 outlet;
#X obj 211 323 outlet;
#X obj 7 323 outlet~;
#X obj 86 146 inlet;
#X text 7 14 ========== CROSSFADE =================================== Gestisce il crossfade tra le sezioni attraverso la gestione dell'oggetto switch~ e lancia una rampa audio lineare in moltiplicazione alla somma dei buffers presenti nella sezione. Riceve la lista con i secondi di crossfade e il prossimo valore della rampa dalla subpatch 'scene' presente nella patch main.;
#X connect 0 0 1 0;
#X connect 0 1 2 0;
#X connect 1 0 11 0;
#X connect 2 0 3 0;
#X connect 3 0 4 0;
#X connect 3 1 6 0;
#X connect 4 0 5 0;
#X connect 5 0 9 0;
#X connect 6 0 10 0;
#X connect 7 0 8 0;
#X connect 8 0 1 0;
#X connect 12 0 0 0;
#X restore 8 130 pd crossfade;
#X f 19;
#X obj 8 212 r~ tamburo;
#X obj 8 262 r~ viola;
#X obj 8 236 delwrite~ sez1_tamburo 500;
#X obj 8 289 delwrite~ sez1_viola 500;
#X obj 287 263 delread~ sez1_tamburo 200;
#X obj 267 235 delread~ sez1_tamburo 100;
#X obj 257 207 delread~ sez1_tamburo 20;
#X obj 652 207 delread~ sez1_viola 20;
#X obj 662 235 delread~ sez1_viola 100;
#X obj 671 263 delread~ sez1_viola 200;
#X obj 872 263 r~ sez1_crossf;
#X obj 8 159 s~ sez1_crossf;
#X obj 491 263 r~ sez1_crossf;
#X obj 8 107 r sez1;
#X text 11 18 ABSTRACTION ------- ========================================================== sezione 1: il tamburo e la viola vengono scritti in un buffer della stessa grandezza e escono su loro stessi. in1(tamburo)->out1(tamburo) in2(viola)->out2(viola);
#X obj 651 289 *~, f 32;
#X obj 256 289 *~, f 34;
#X connect 1 0 2 0;
#X connect 2 0 0 0;
#X connect 4 0 5 0;
#X connect 5 0 3 0;
#X connect 9 0 21 0;
#X connect 9 1 8 0;
#X connect 9 2 8 0;
#X connect 10 0 12 0;
#X connect 11 0 13 0;
#X connect 14 0 26 0;
#X connect 15 0 26 0;
#X connect 16 0 26 0;
#X connect 17 0 25 0;
#X connect 18 0 25 0;
#X connect 19 0 25 0;
#X connect 20 0 25 1;
#X connect 22 0 26 1;
#X connect 23 0 9 0;
#X connect 25 0 4 0;
#X connect 25 0 6 0;
#X connect 26 0 1 0;
#X connect 26 0 7 0;
