#N canvas 0 25 1091 726 12;
#X obj 138 220 switch~;
#N canvas 640 25 640 359 crossfade 0;
#X obj 86 177 t l l;
#X obj 7 212 vline~;
#X obj 118 200 unpack f f;
#X obj 118 233 sel 0 1, f 27;
#X obj 118 262 delay 10000;
#X msg 118 295 0;
#X msg 211 295 1;
#X obj 7 146 loadbang;
#X msg 7 170 0;
#X obj 118 323 outlet;
#X obj 211 323 outlet;
#X obj 7 283 outlet~;
#X obj 86 146 inlet;
#X text 7 14 ========== CROSSFADE =================================== Gestisce il crossfade tra le sezioni attraverso la gestione dell'oggetto switch~ e lancia una rampa audio lineare in moltiplicazione alla somma dei buffers presenti nella sezione. Riceve la lista con i secondi di crossfade e il prossimo valore della rampa dalla subpatch 'scene' presente nella patch main.;
#X connect 0 0 1 0;
#X connect 0 1 2 0;
#X connect 1 0 11 0;
#X connect 2 0 3 0;
#X connect 3 0 4 0;
#X connect 3 1 6 0;
#X connect 4 0 5 0;
#X connect 5 0 9 0;
#X connect 6 0 10 0;
#X connect 7 0 8 0;
#X connect 8 0 1 0;
#X connect 12 0 0 0;
#X restore 8 191 pd crossfade;
#X f 19;
#X obj 8 273 r~ tamburo;
#X obj 8 323 r~ viola;
#X obj 8 168 r sez3;
#X obj 8 220 s~ sez3_crossf;
#X obj 8 297 delwrite~ sez3_tamburo 8000;
#X obj 8 350 delwrite~ sez3_viola 8000;
#X obj 552 432 vu 19 200 empty empty -1 -10 0 12 #404040 #000000 1 0;
#X obj 547 369 env~ 4096 2048;
#X obj 549 397 - 100;
#X obj 407 369 outlet~;
#X obj 642 312 r~ sez3_crossf;
#X obj 407 340 *~, f 34;
#X obj 407 252 *~, f 9;
#X obj 407 228 osc~ 40;
#X obj 487 312 *~, f 9;
#X obj 467 228 delread~ sez3_tamburo 8000;
#X obj 407 312 lop~ 3000;
#X obj 407 288 hip~ 100;
#X obj 547 288 delread~ sez3_viola 100;
#X obj 902 432 vu 19 200 empty empty -1 -10 0 12 #404040 #000000 1 0;
#X obj 897 369 env~ 4096 2048;
#X obj 899 397 - 100;
#X obj 757 369 outlet~;
#X obj 992 312 r~ sez3_crossf;
#X obj 757 340 *~, f 34;
#X obj 757 252 *~, f 9;
#X obj 837 312 *~, f 9;
#X obj 757 312 lop~ 300;
#X text 11 18 ABSTRACTION ------- ========================================================== sezione 3: il tamburo e la viola vengono scritti in un buffer della stessa grandezza e: - il buffer lungo esce nella strumento opposto - il buffer corto esce nello strumento di provenienza LUNGO: in1(tamburo)->out1(viola) in2(viola)->out2(tamburo) CORTO: in1(tamburo)->out1(tamburo) in2(viola)->out2(viola);
#X obj 817 228 delread~ sez3_viola 7500;
#X obj 897 288 delread~ sez3_tamburo 100;
#X obj 757 228 osc~ 20;
#X obj 837 288 osc~ 40;
#X obj 488 288 osc~ 10;
#X connect 1 0 5 0;
#X connect 1 1 0 0;
#X connect 1 2 0 0;
#X connect 2 0 6 0;
#X connect 3 0 7 0;
#X connect 4 0 1 0;
#X connect 9 0 10 0;
#X connect 10 0 8 0;
#X connect 12 0 13 1;
#X connect 13 0 9 0;
#X connect 13 0 11 0;
#X connect 14 0 19 0;
#X connect 15 0 14 0;
#X connect 16 0 13 0;
#X connect 17 0 14 1;
#X connect 18 0 13 0;
#X connect 19 0 18 0;
#X connect 20 0 16 1;
#X connect 22 0 23 0;
#X connect 23 0 21 0;
#X connect 25 0 26 1;
#X connect 26 0 22 0;
#X connect 26 0 24 0;
#X connect 27 0 29 0;
#X connect 28 0 26 0;
#X connect 29 0 26 0;
#X connect 31 0 27 1;
#X connect 32 0 28 1;
#X connect 33 0 27 0;
#X connect 34 0 28 0;
#X connect 35 0 16 0;
