#N canvas 0 25 1201 747 12;
#N canvas 70 38 450 569 clock 0;
#X obj 232 110 metro 1000;
#X obj 231 146 f;
#X obj 232 175 + 1;
#X floatatom 264 355 5 0 0 0 - - - 36;
#X msg 275 146 0;
#X floatatom 132 356 5 0 0 0 - - - 36;
#X obj 124 152 f;
#X obj 125 181 + 1;
#X obj 291 191 sel 61;
#X msg 116 68 -1;
#X msg 159 61 0;
#X obj 231 26 inlet;
#X obj 77 30 r mes1;
#X obj 147 25 r mes2;
#X text 297 323 SEC;
#X text 169 326 MIN;
#X connect 0 0 1 0;
#X connect 1 0 2 0;
#X connect 2 0 1 1;
#X connect 2 0 3 0;
#X connect 2 0 8 0;
#X connect 4 0 2 0;
#X connect 6 0 7 0;
#X connect 7 0 6 1;
#X connect 7 0 5 0;
#X connect 8 0 4 0;
#X connect 8 0 6 0;
#X connect 9 0 6 0;
#X connect 9 0 1 0;
#X connect 10 0 6 0;
#X connect 10 0 1 0;
#X connect 11 0 0 0;
#X connect 12 0 9 0;
#X connect 13 0 10 0;
#X coords 0 -1 1 1 300 120 1 100 300;
#X restore 807 151 pd clock;
#X obj 847 44 tgl 19 0 empty empty empty 0 -10 0 12 #fcfcfc #000000 #000000 0 1;
#X msg 798 74 -1;
#X msg 855 74 0;
#X obj 798 108 s mes1;
#X obj 855 107 s mes2;
#N canvas 55 25 895 747 scene 0;
#X obj 142 19 key;
#X obj 142 43 sel 32;
#X obj 142 67 t b b;
#X obj 142 91 f;
#X obj 142 115 + 1;
#X floatatom 334 160 5 0 0 0 - - - 36;
#X obj 142 223 sel 0 1 2;
#X text 355 128 SEZIONE;
#X obj 260 462 s sez1;
#X obj 316 461 s sez2;
#X obj 375 462 s sez3;
#X obj 142 139 mod 4;
#X msg 32 308 0 10000;
#X msg 98 308 0 10000;
#X msg 164 307 0 10000;
#X msg 231 306 1 10000;
#X msg 297 307 0 10000;
#X msg 362 307 0 10000;
#X msg 428 306 0 10000;
#X msg 495 307 1 10000;
#X msg 559 305 0 10000;
#X msg 623 306 0 10000;
#X msg 688 307 0 10000;
#X msg 749 308 1 10000;
#X connect 0 0 1 0;
#X connect 1 0 2 0;
#X connect 2 0 3 0;
#X connect 3 0 4 0;
#X connect 4 0 3 1;
#X connect 4 0 11 0;
#X connect 6 0 12 0;
#X connect 6 0 13 0;
#X connect 6 0 14 0;
#X connect 6 1 15 0;
#X connect 6 1 16 0;
#X connect 6 1 17 0;
#X connect 6 2 18 0;
#X connect 6 2 19 0;
#X connect 6 2 20 0;
#X connect 6 3 21 0;
#X connect 6 3 22 0;
#X connect 6 3 23 0;
#X connect 11 0 5 0;
#X connect 11 0 6 0;
#X connect 12 0 8 0;
#X connect 13 0 9 0;
#X connect 14 0 10 0;
#X connect 15 0 8 0;
#X connect 16 0 9 0;
#X connect 17 0 10 0;
#X connect 18 0 8 0;
#X connect 19 0 9 0;
#X connect 20 0 10 0;
#X connect 21 0 8 0;
#X connect 22 0 9 0;
#X connect 23 0 10 0;
#X coords 0 -1 1 1 185 130 1 300 100;
#X restore 61 127 pd scene;
#X obj 499 130 sezione1;
#X obj 572 129 sezione2;
#X obj 645 128 sezione3;
#X obj 573 250 dac~;
#X obj 540 205 +~;
#X obj 629 201 +~;
#X msg 333 81 \; pd dsp 1;
#X msg 333 145 \; pd dsp 0;
#X obj 87 334 adc~ 1;
#X obj 88 451 vu 19 200 empty empty -1 -10 0 12 #404040 #000000 1 0;
#X obj 86 398 env~ 4096 2048;
#X obj 88 424 - 100;
#X obj 256 453 vu 19 200 empty empty -1 -10 0 12 #404040 #000000 1 0;
#X obj 254 400 env~ 4096 2048;
#X obj 256 426 - 100;
#X obj 255 336 adc~ 2;
#X text 163 322 INGRESSI;
#X text 938 94 TIMER;
#X obj 467 450 vu 19 200 empty empty -1 -10 0 12 #404040 #000000 1 0;
#X obj 465 397 env~ 4096 2048;
#X obj 467 423 - 100;
#X obj 635 452 vu 19 200 empty empty -1 -10 0 12 #404040 #000000 1 0;
#X obj 633 399 env~ 4096 2048;
#X obj 635 425 - 100;
#X text 565 328 USCITE;
#X text 67 40 sezione 0 = off;
#X text 66 56 sezione 1 = prima sezione;
#X text 65 73 sezione 2 = seconda;
#X text 66 91 sezione 3 = terza;
#X connect 1 0 0 0;
#X connect 2 0 4 0;
#X connect 3 0 5 0;
#X connect 7 0 11 0;
#X connect 7 1 12 0;
#X connect 8 0 11 0;
#X connect 8 0 12 0;
#X connect 9 0 11 0;
#X connect 9 0 12 0;
#X connect 11 0 10 0;
#X connect 11 0 26 0;
#X connect 12 0 10 1;
#X connect 12 0 29 0;
#X connect 15 0 17 0;
#X connect 17 0 18 0;
#X connect 18 0 16 0;
#X connect 20 0 21 0;
#X connect 21 0 19 0;
#X connect 22 0 20 0;
#X connect 26 0 27 0;
#X connect 27 0 25 0;
#X connect 29 0 30 0;
#X connect 30 0 28 0;
