#N canvas 0 25 1280 747 12;
#X obj 112 404 vu 19 200 empty empty -1 -10 0 12 #404040 #000000 1 0;
#X obj 110 351 env~ 4096 2048;
#X obj 112 377 - 100;
#X obj 988 418 vu 19 200 empty empty -1 -10 0 12 #404040 #000000 1 0;
#X obj 983 355 env~ 4096 2048;
#X obj 985 383 - 100;
#X text 858 444 USCITA;
#X obj 109 277 adc~ 1;
#X obj 987 119 delread~ fb_delay 20;
#X obj 996 144 delread~ fb_delay 100;
#X obj 1016 166 delread~ fb_delay 200;
#X obj 683 411 vu 19 200 empty empty -1 -10 0 12 #404040 #000000 1 0;
#X obj 678 356 env~ 4096 2048;
#X obj 680 384 - 100;
#X text 1134 441 USCITA;
#X obj 682 105 delread~ fb_delay1 20;
#X obj 703 128 delread~ fb_delay1 100;
#X obj 729 152 delread~ fb_delay1 200;
#X text 163 278 INGRESSO, f 9;
#X obj 369 409 vu 19 200 empty empty -1 -10 0 12 #404040 #000000 1 0;
#X obj 367 356 env~ 4096 2048;
#X obj 369 382 - 100;
#X text 423 283 INGRESSO, f 9;
#X obj 365 287 adc~ 2;
#X obj 795 445 outlet~;
#X obj 1075 444 outlet~;
#X obj 161 326 delwrite~ fb_delay 500;
#X obj 428 327 delwrite~ fb_delay1 500;
#X obj 226 34 r sez1;
#X obj 269 242 switch~;
#X obj 226 64 t l l;
#X obj 200 100 vline~;
#X obj 261 100 unpack f f;
#X obj 261 144 sel 0 1;
#X obj 212 182 delay 10000;
#X msg 211 218 0;
#X msg 303 183 1;
#X obj 153 133 s~ vline1;
#X obj 735 266 r~ vline1;
#X obj 679 321 *~ 1;
#X obj 1034 260 r~ vline1;
#X obj 986 316 *~ 1;
#X obj 97 36 loadbang;
#X msg 97 60 0;
#X connect 1 0 2 0;
#X connect 2 0 0 0;
#X connect 4 0 5 0;
#X connect 5 0 3 0;
#X connect 7 0 1 0;
#X connect 7 0 26 0;
#X connect 8 0 41 0;
#X connect 9 0 41 0;
#X connect 10 0 41 0;
#X connect 12 0 13 0;
#X connect 13 0 11 0;
#X connect 15 0 39 0;
#X connect 16 0 39 0;
#X connect 17 0 39 0;
#X connect 20 0 21 0;
#X connect 21 0 19 0;
#X connect 23 0 20 0;
#X connect 23 0 27 0;
#X connect 28 0 30 0;
#X connect 30 0 31 0;
#X connect 30 1 32 0;
#X connect 31 0 37 0;
#X connect 32 0 33 0;
#X connect 33 0 34 0;
#X connect 33 1 36 0;
#X connect 34 0 35 0;
#X connect 35 0 29 0;
#X connect 36 0 29 0;
#X connect 38 0 39 1;
#X connect 39 0 12 0;
#X connect 39 0 24 0;
#X connect 40 0 41 1;
#X connect 41 0 4 0;
#X connect 41 0 25 0;
#X connect 42 0 43 0;
#X connect 43 0 31 0;
