#N canvas 0 27 1280 724 12;
#X obj 134 456 vu 19 200 empty empty -1 -10 0 12 #404040 #000000 1 0;
#X obj 132 403 env~ 4096 2048;
#X obj 134 429 - 100;
#X obj 633 445 vu 19 200 empty empty -1 -10 0 12 #404040 #000000 1 0;
#X obj 635 370 env~ 4096 2048;
#X obj 637 398 - 100;
#X obj 129 286 adc~ 1;
#X text 180 287 INGRESSO, f 9;
#X obj 691 313 *~;
#X obj 379 464 vu 19 200 empty empty -1 -10 0 12 #404040 #000000 1 0;
#X obj 377 381 env~ 4096 2048;
#X obj 379 407 - 100;
#X text 435 278 INGRESSO, f 9;
#X obj 377 282 adc~ 2;
#X obj 940 459 vu 19 200 empty empty -1 -10 0 12 #404040 #000000 1 0;
#X obj 935 404 env~ 4096 2048;
#X obj 937 432 - 100;
#X obj 709 258 osc~;
#X obj 1007 276 osc~;
#X obj 989 329 *~;
#X obj 753 334 *~ 0.5;
#X obj 704 168 env~ 8192 4096;
#X obj 1006 186 env~ 8192 4096;
#X obj 706 222 + 320;
#X obj 1081 355 *~ 0.5;
#X obj 1005 240 + 335;
#X obj 152 326 delwrite~ fb_delay2 15000;
#X obj 690 135 delread~ fb_delay2 15000;
#X obj 754 91 delread~ fb_delay2 20;
#X obj 414 331 delwrite~ fb_delay3 15000;
#X obj 991 158 delread~ fb_delay3 14200;
#X obj 1070 105 delread~ fb_delay3 20;
#X obj 254 21 r sez2;
#X obj 250 54 t l l;
#X obj 224 90 vline~;
#X obj 285 90 unpack f f;
#X obj 285 134 sel 0 1;
#X obj 236 172 delay 10000;
#X msg 235 208 0;
#X msg 327 173 1;
#X obj 287 234 switch~;
#X obj 177 123 s~ vline2;
#X text 815 486 USCITA;
#X obj 753 485 outlet~;
#X obj 791 374 r~ vline2;
#X obj 752 408 *~;
#X text 1140 515 USCITA;
#X obj 1078 514 outlet~;
#X obj 1116 403 r~ vline2;
#X obj 1077 437 *~;
#X obj 88 36 loadbang;
#X msg 88 60 0;
#X text 107 249 tamburo;
#X text 1097 270 tamburo;
#X connect 1 0 2 0;
#X connect 2 0 0 0;
#X connect 4 0 5 0;
#X connect 5 0 3 0;
#X connect 6 0 1 0;
#X connect 6 0 26 0;
#X connect 8 0 4 0;
#X connect 8 0 20 0;
#X connect 10 0 11 0;
#X connect 11 0 9 0;
#X connect 13 0 10 0;
#X connect 13 0 29 0;
#X connect 15 0 16 0;
#X connect 16 0 14 0;
#X connect 17 0 8 1;
#X connect 18 0 19 1;
#X connect 19 0 15 0;
#X connect 19 0 24 0;
#X connect 20 0 45 0;
#X connect 21 0 23 0;
#X connect 22 0 25 0;
#X connect 23 0 17 0;
#X connect 24 0 49 0;
#X connect 25 0 18 0;
#X connect 27 0 8 0;
#X connect 27 0 21 0;
#X connect 28 0 20 0;
#X connect 30 0 19 0;
#X connect 30 0 22 0;
#X connect 31 0 24 0;
#X connect 32 0 33 0;
#X connect 33 0 34 0;
#X connect 33 1 35 0;
#X connect 34 0 41 0;
#X connect 35 0 36 0;
#X connect 36 0 37 0;
#X connect 36 1 39 0;
#X connect 37 0 38 0;
#X connect 38 0 40 0;
#X connect 39 0 40 0;
#X connect 44 0 45 1;
#X connect 45 0 43 0;
#X connect 48 0 49 1;
#X connect 49 0 47 0;
#X connect 50 0 51 0;
#X connect 51 0 34 0;
