#N canvas 0 25 1280 747 12;
#X obj 75 478 vu 19 200 empty empty -1 -10 0 12 #404040 #000000 1 0;
#X obj 73 425 env~ 4096 2048;
#X obj 75 451 - 100;
#X obj 636 366 vu 19 200 empty empty -1 -10 0 12 #404040 #000000 1 0;
#X obj 633 291 env~ 4096 2048;
#X obj 635 319 - 100;
#X obj 70 308 adc~ 1;
#X text 121 309 INGRESSO, f 9;
#X obj 343 497 vu 19 200 empty empty -1 -10 0 12 #404040 #000000 1 0;
#X obj 341 444 env~ 4096 2048;
#X obj 343 470 - 100;
#X text 398 316 INGRESSO, f 9;
#X obj 340 320 adc~ 2;
#X obj 943 386 vu 19 200 empty empty -1 -10 0 12 #404040 #000000 1 0;
#X obj 937 318 env~ 4096 2048;
#X obj 937 349 - 100;
#X obj 1113 229 clip~ -1 1;
#X obj 1113 194 *~;
#X floatatom 1132 126 5 0 0 0 - - - 0;
#X obj 823 206 clip~ -1 1;
#X obj 823 171 *~;
#X floatatom 869 128 5 0 0 0 - - - 0;
#X obj 137 348 delwrite~ fb_delay4 8000;
#X obj 623 90 delread~ fb_delay4 8000;
#X obj 409 368 delwrite~ fb_delay5 8000;
#X obj 661 213 clip~ -1 1;
#X obj 661 178 *~;
#X floatatom 707 135 5 0 0 0 - - - 0;
#X obj 130 384 delwrite~ delay6 100;
#X obj 975 234 clip~ -1 1;
#X obj 974 191 *~;
#X floatatom 1020 148 5 0 0 0 - - - 0;
#X obj 428 406 delwrite~ delay7 100;
#X obj 930 100 delread~ fb_delay5 7500;
#X obj 1020 180 osc~ 20;
#X obj 1132 158 osc~ 40;
#X obj 707 167 osc~ 40;
#X obj 766 297 lop~ 3000;
#X obj 1058 326 lop~ 300;
#X obj 869 160 osc~ 20;
#X obj 766 263 hip~ 100;
#X obj 1112 70 delread~ delay6 100;
#X obj 822 61 delread~ delay7 100;
#X obj 212 36 r sez3;
#X obj 210 67 t l l;
#X obj 184 103 vline~;
#X obj 245 103 unpack f f;
#X obj 245 147 sel 0 1;
#X obj 196 185 delay 10000;
#X msg 195 221 0;
#X msg 287 186 1;
#X obj 240 255 switch~;
#X obj 137 136 s~ vline3;
#X obj 769 462 outlet~;
#X text 829 462 USCITA;
#X obj 821 368 r~ vline3;
#X obj 773 403 *~;
#X obj 1061 469 outlet~;
#X text 1121 469 USCITA;
#X obj 1113 375 r~ vline3;
#X obj 1065 410 *~;
#X obj 81 38 loadbang;
#X msg 81 62 0;
#X text 1047 560 tamburo;
#X text 63 238 tamburo;
#X connect 1 0 2 0;
#X connect 2 0 0 0;
#X connect 4 0 5 0;
#X connect 5 0 3 0;
#X connect 6 0 1 0;
#X connect 6 0 22 0;
#X connect 6 0 28 0;
#X connect 9 0 10 0;
#X connect 10 0 8 0;
#X connect 12 0 9 0;
#X connect 12 0 24 0;
#X connect 12 0 32 0;
#X connect 14 0 15 0;
#X connect 15 0 13 0;
#X connect 16 0 38 0;
#X connect 17 0 16 0;
#X connect 18 0 35 0;
#X connect 19 0 40 0;
#X connect 20 0 19 0;
#X connect 21 0 39 0;
#X connect 23 0 4 0;
#X connect 23 0 26 0;
#X connect 25 0 40 0;
#X connect 26 0 25 0;
#X connect 27 0 36 0;
#X connect 29 0 38 0;
#X connect 30 0 29 0;
#X connect 31 0 34 0;
#X connect 33 0 14 0;
#X connect 33 0 30 0;
#X connect 34 0 30 1;
#X connect 35 0 17 1;
#X connect 36 0 26 1;
#X connect 37 0 56 0;
#X connect 38 0 60 0;
#X connect 39 0 20 1;
#X connect 40 0 37 0;
#X connect 41 0 17 0;
#X connect 42 0 20 0;
#X connect 43 0 44 0;
#X connect 44 0 45 0;
#X connect 44 1 46 0;
#X connect 45 0 52 0;
#X connect 46 0 47 0;
#X connect 47 0 48 0;
#X connect 47 1 50 0;
#X connect 48 0 49 0;
#X connect 49 0 51 0;
#X connect 50 0 51 0;
#X connect 55 0 56 1;
#X connect 56 0 53 0;
#X connect 59 0 60 1;
#X connect 60 0 57 0;
#X connect 61 0 62 0;
#X connect 62 0 45 0;
